<svg width="24" height="24" viewBox="0 0 24 24" fill="none" xmlns="http://www.w3.org/2000/svg">
<path fill-rule="evenodd" clip-rule="evenodd" d="M12.0074 24.0005C9.79939 24.0005 7.72339 23.4005 5.93539 22.3565L2.01137 23.4365C1.12337 23.6885 0.295391 22.8725 0.535391 21.9725L1.60341 18.0005C0.295409 15.7325 -0.304617 12.9845 0.151382 10.0805C0.931382 5.06454 4.95137 0.99654 9.96737 0.16854C17.2514 -1.03146 23.5754 4.33254 23.9834 11.2925C24.3794 18.0365 18.7634 24.0005 12.0074 24.0005ZM17.8508 16.4646C17.9588 16.2486 18.0068 16.0206 18.0068 15.8046C18.0068 15.6968 17.992 15.599 17.9783 15.5078C17.9706 15.4568 17.9632 15.4079 17.9589 15.3606C17.8869 15.2166 17.7788 15.0846 17.6228 14.9766L15.6309 13.5606C15.4869 13.4526 15.3428 13.3806 15.2108 13.3206C15.0788 13.2606 14.9588 13.2366 14.8388 13.2366C14.6828 13.2366 14.5508 13.2846 14.4068 13.3686C14.2748 13.4406 14.1309 13.5486 13.9749 13.7046L13.5188 14.1606C13.4468 14.2326 13.3748 14.2686 13.2668 14.2686H13.2668C13.2068 14.2686 13.1588 14.2686 13.1108 14.2446C13.0928 14.2386 13.0748 14.2296 13.0568 14.2206C13.0388 14.2116 13.0209 14.2026 13.0029 14.1966C12.7989 14.0886 12.5348 13.9086 12.2228 13.6446C11.8988 13.3686 11.5868 13.0806 11.2628 12.7566C10.9508 12.4446 10.6629 12.1206 10.3869 11.8086C10.1229 11.4966 9.93083 11.2446 9.82283 11.0406L9.82271 11.0402C9.81075 11.0043 9.79878 10.9684 9.77485 10.9206L9.77478 10.9203C9.76281 10.8724 9.75083 10.8245 9.75083 10.7766C9.75083 10.6806 9.77485 10.6086 9.84685 10.5366L10.3029 10.0566C10.4469 9.91255 10.5548 9.76855 10.6388 9.62455C10.7228 9.48055 10.7708 9.33656 10.7708 9.19256C10.7708 9.07256 10.7469 8.95256 10.6869 8.82056C10.6389 8.68856 10.5549 8.55656 10.4469 8.40056L9.06682 6.42056C8.95882 6.26456 8.81486 6.15656 8.65886 6.08456C8.50286 6.01256 8.33482 5.97656 8.16682 5.97656C7.72282 5.97656 7.30285 6.15655 6.91885 6.54056C6.59485 6.84055 6.36683 7.17656 6.22283 7.54856C6.07883 7.90856 6.00684 8.30456 6.00684 8.71256C6.00684 9.33656 6.15082 9.99656 6.43882 10.6806C6.72682 11.3646 7.12287 12.0486 7.61487 12.7326C8.11887 13.4166 8.67082 14.0766 9.29482 14.7006C9.91882 15.3126 10.5668 15.8766 11.2628 16.3806C11.9468 16.8726 12.6308 17.2686 13.3268 17.5686C14.0108 17.8686 14.6708 18.0126 15.2828 18.0126C15.7028 18.0126 16.0989 17.9406 16.4589 17.7846C16.8189 17.6406 17.1429 17.4006 17.4429 17.0766C17.6109 16.8846 17.7428 16.6806 17.8508 16.4646Z" fill="#FAFAFA"/>
</svg>
