<svg width="14" height="14" viewBox="0 0 14 14" fill="none" xmlns="http://www.w3.org/2000/svg">
<path d="M7.00002 9.479C5.47169 9.479 4.22919 8.2365 4.22919 6.70817V3.49984C4.22919 1.9715 5.47169 0.729004 7.00002 0.729004C8.52835 0.729004 9.77085 1.9715 9.77085 3.49984V6.70817C9.77085 8.2365 8.52835 9.479 7.00002 9.479ZM7.00002 1.604C5.95585 1.604 5.10419 2.45567 5.10419 3.49984V6.70817C5.10419 7.75234 5.95585 8.604 7.00002 8.604C8.04419 8.604 8.89585 7.75234 8.89585 6.70817V3.49984C8.89585 2.45567 8.04419 1.604 7.00002 1.604Z" fill="#A2A2A5"/>
<path d="M6.99998 11.5211C4.29914 11.5211 2.09998 9.3219 2.09998 6.62106V5.62939C2.09998 5.39023 2.29831 5.19189 2.53748 5.19189C2.77664 5.19189 2.97498 5.39023 2.97498 5.62939V6.62106C2.97498 8.83773 4.78331 10.6461 6.99998 10.6461C9.21664 10.6461 11.025 8.83773 11.025 6.62106V5.62939C11.025 5.39023 11.2233 5.19189 11.4625 5.19189C11.7016 5.19189 11.9 5.39023 11.9 5.62939V6.62106C11.9 9.3219 9.70081 11.5211 6.99998 11.5211Z" fill="#A2A2A5"/>
<path d="M7.81086 4.18835C7.7642 4.18835 7.7117 4.18252 7.6592 4.16502C7.23336 4.00752 6.7667 4.00752 6.34086 4.16502C6.11336 4.24669 5.86253 4.13002 5.78086 3.90252C5.6992 3.67502 5.81586 3.42419 6.04336 3.34252C6.6617 3.12085 7.3442 3.12085 7.96253 3.34252C8.19003 3.42419 8.3067 3.67502 8.22503 3.90252C8.15503 4.07752 7.98586 4.18835 7.81086 4.18835Z" fill="#A2A2A5"/>
<path d="M7.46667 5.42502C7.42584 5.42502 7.39084 5.41919 7.35 5.40752C7.11667 5.34335 6.8775 5.34335 6.64417 5.40752C6.41084 5.47169 6.17167 5.33169 6.1075 5.09835C6.04334 4.87085 6.18334 4.63169 6.41667 4.56752C6.79584 4.46252 7.20417 4.46252 7.58334 4.56752C7.81667 4.63169 7.95667 4.87085 7.8925 5.10419C7.84 5.29669 7.65917 5.42502 7.46667 5.42502Z" fill="#A2A2A5"/>
<path d="M7 13.271C6.76083 13.271 6.5625 13.0727 6.5625 12.8335V11.0835C6.5625 10.8443 6.76083 10.646 7 10.646C7.23917 10.646 7.4375 10.8443 7.4375 11.0835V12.8335C7.4375 13.0727 7.23917 13.271 7 13.271Z" fill="#A2A2A5"/>
</svg>
