<svg width="14" height="14" viewBox="0 0 14 14" fill="none" xmlns="http://www.w3.org/2000/svg">
<path fill-rule="evenodd" clip-rule="evenodd" d="M4.37474 2.47917C3.12649 2.47917 2.11458 3.49107 2.11458 4.73932C2.11458 5.98757 3.12649 6.99948 4.37474 6.99948C5.62299 6.99948 6.63489 5.98757 6.63489 4.73932C6.63489 3.49107 5.62299 2.47917 4.37474 2.47917ZM2.98958 4.73932C2.98958 3.97432 3.60974 3.35417 4.37474 3.35417C5.13974 3.35417 5.75989 3.97432 5.75989 4.73932C5.75989 5.50432 5.13974 6.12448 4.37474 6.12448C3.60974 6.12448 2.98958 5.50432 2.98958 4.73932Z" fill="#FAFAFA"/>
<path fill-rule="evenodd" clip-rule="evenodd" d="M2.87846 7.49162C2.23906 7.49162 1.6474 7.82999 1.32317 8.38108L1.02163 8.89362C0.774025 9.31447 0.664136 9.81181 0.768203 10.2652C0.877723 10.7424 1.21895 11.1317 1.77024 11.2741C3.22637 11.6503 5.52362 11.6503 6.97976 11.2741C6.9868 11.2723 6.9938 11.2705 7.00077 11.2686C7.00726 11.2706 7.01383 11.2724 7.02048 11.2741C8.47661 11.6503 10.7739 11.6503 12.23 11.2741C12.7813 11.1317 13.1225 10.7424 13.232 10.2652C13.3361 9.81181 13.2262 9.31447 12.9786 8.89362L12.6771 8.38108C12.3528 7.82999 11.7612 7.49162 11.1218 7.49162H8.1287C7.71193 7.49162 7.31548 7.63536 7.00012 7.88808C6.68477 7.63537 6.28829 7.49162 5.87154 7.49162H2.87846ZM2.07733 8.82478C2.24434 8.54091 2.5491 8.36662 2.87846 8.36662H5.87154C6.20089 8.36662 6.50565 8.54091 6.67266 8.82478L6.97421 9.33732C7.13409 9.60907 7.17274 9.87877 7.12896 10.0695C7.09064 10.2365 6.98765 10.3684 6.7609 10.427C5.44831 10.766 3.30168 10.766 1.98909 10.427C1.76234 10.3684 1.65935 10.2365 1.62103 10.0695C1.57725 9.87877 1.6159 9.60907 1.77579 9.33732L2.07733 8.82478ZM7.54133 8.5757L7.72837 8.89362C7.97597 9.31447 8.08586 9.81181 7.98179 10.2652C7.95846 10.3669 7.92463 10.4645 7.88049 10.5566C9.17699 10.7584 10.8954 10.7152 12.0111 10.427C12.2379 10.3684 12.3409 10.2365 12.3792 10.0695C12.423 9.87877 12.3843 9.60907 12.2244 9.33732L11.9229 8.82478C11.7559 8.54091 11.4511 8.36662 11.1218 8.36662H8.1287C7.91138 8.36662 7.70473 8.44252 7.54133 8.5757Z" fill="#FAFAFA"/>
<path fill-rule="evenodd" clip-rule="evenodd" d="M7.36458 4.73932C7.36458 3.49107 8.37649 2.47917 9.62474 2.47917C10.873 2.47917 11.8849 3.49107 11.8849 4.73932C11.8849 5.98757 10.873 6.99948 9.62474 6.99948C8.37649 6.99948 7.36458 5.98757 7.36458 4.73932ZM9.62474 3.35417C8.85973 3.35417 8.23958 3.97432 8.23958 4.73932C8.23958 5.50432 8.85973 6.12448 9.62474 6.12448C10.3897 6.12448 11.0099 5.50432 11.0099 4.73932C11.0099 3.97432 10.3897 3.35417 9.62474 3.35417Z" fill="#FAFAFA"/>
</svg>
