<svg width="24" height="24" viewBox="0 0 24 24" fill="none" xmlns="http://www.w3.org/2000/svg">
<g clip-path="url(#clip0_3078_5720)">
<path d="M5.97833 23.9359C5.15627 23.8083 4.36563 23.5269 3.64781 23.1064C2.02883 22.178 0.820595 20.5151 0.432855 18.6832C0.281966 17.9667 0.262947 17.0613 0.28295 11.4808C0.301922 5.47553 0.287915 5.78537 0.573766 4.79599C0.715661 4.30332 1.11043 3.45682 1.39623 3.03011C2.45058 1.46107 4.00159 0.453701 5.92338 0.0889624C6.30713 0.016024 6.86277 0.00899723 11.9756 0.00899723C18.2226 0.00899723 18.0168 2.92063e-06 19.0371 0.322815C20.0278 0.643342 20.9317 1.18702 21.6792 1.91196C22.4266 2.6369 22.9977 3.52375 23.3484 4.50419C23.6782 5.44059 23.6942 5.59049 23.7172 8.05695L23.7372 10.2855C23.7372 10.4531 23.7372 11.6562 23.7362 11.9886L23.7172 15.0776C23.6992 18.0688 23.6952 18.1827 23.5943 18.6364C22.9947 21.3127 21.0559 23.2694 18.4025 23.8751L17.9348 23.982L12.1635 23.992C7.43246 24 6.3181 23.9899 5.97833 23.9359Z" fill="white"/>
<path d="M5.97833 23.9359C5.15627 23.8083 4.36563 23.5269 3.64781 23.1064C2.02883 22.178 0.820595 20.5151 0.432855 18.6832C0.281966 17.9667 0.262947 17.0613 0.28295 11.4808C0.301922 5.47553 0.287915 5.78537 0.573766 4.79599C0.715661 4.30332 1.11043 3.45682 1.39623 3.03011C2.45058 1.46107 4.00159 0.453701 5.92338 0.0889624C6.30713 0.016024 6.86277 0.00899723 11.9756 0.00899723C18.2226 0.00899723 18.0168 2.90945e-06 19.0371 0.322815C20.0278 0.643342 20.9317 1.18702 21.6792 1.91196C22.4266 2.6369 22.9977 3.52375 23.3484 4.50419C23.6782 5.44059 23.6941 5.59049 23.7172 8.05695L23.7372 10.2855L23.3464 10.5533C22.7888 10.9341 22.0572 11.6127 21.0319 12.702C19.8506 13.9572 18.6574 15.1205 18.0518 15.6072C16.7436 16.6575 15.5453 17.2571 14.3281 17.47C13.6945 17.5799 12.6472 17.5369 12.0276 17.375C11.4749 17.2311 11.5109 17.2071 11.302 17.8387C11.1323 18.3385 11.0255 18.8575 10.9842 19.3838L10.9533 19.7905L10.8073 19.7605C9.59311 19.5197 8.38988 18.4764 7.92518 17.2621C7.76805 16.8744 7.6801 16.462 7.66532 16.0439L7.64935 15.7041L7.34054 15.4203C6.69693 14.8307 6.27823 14.1091 6.14631 13.3606C5.93443 12.1683 6.48608 10.8202 7.68336 9.60697C8.94655 8.32477 10.8084 7.31843 12.6332 6.92868C13.2908 6.78875 14.4501 6.75179 15.0347 6.85373C16.172 7.0516 17.1004 7.62625 17.6781 8.49168C17.86 8.76249 17.8729 8.80147 17.855 9.04633C17.8503 9.22629 17.786 9.39961 17.6721 9.539C17.2074 10.1896 15.8252 10.8861 14.3382 11.2179C11.7148 11.8026 10.0469 11.076 10.3077 9.46007C10.3337 9.29718 10.3477 9.15627 10.3387 9.14728C10.3067 9.11528 10.0459 9.25123 9.76405 9.44709C9.28533 9.78086 8.86162 10.4305 8.71471 11.0531C8.67873 11.209 8.66473 11.4588 8.68075 11.7027C8.70075 12.0335 8.73373 12.1564 8.87262 12.4382C8.96458 12.6241 9.14747 12.8879 9.28037 13.0268L9.52022 13.2777L9.42428 13.3996C9.14135 13.7703 8.91347 14.18 8.74769 14.6159C8.55964 15.2018 8.52353 15.826 8.64275 16.4297C8.74567 16.8905 9.06347 17.524 9.38127 17.8968C9.62314 18.1816 10.1778 18.6603 10.2667 18.6603C10.2907 18.6603 10.3107 18.6124 10.3107 18.5544C10.3117 18.3245 10.4946 17.582 10.6365 17.2283C11.0592 16.1709 11.9866 15.2695 13.4547 14.49C13.6996 14.3601 14.4061 14.0203 15.0257 13.7335C16.3849 13.1039 17.1274 12.7192 17.5351 12.4293C18.7104 11.5968 19.4369 10.3656 19.6738 8.80662C19.7597 8.23698 19.7597 7.17363 19.6738 6.60099C19.306 4.16452 17.4801 2.50759 14.8588 2.23373C11.9357 1.92694 8.21501 4.1855 5.92244 7.65731C4.80714 9.34623 4.05363 11.22 3.73682 13.0969C3.6139 13.8244 3.56794 15.1755 3.64388 15.8451C3.83674 17.5481 4.46536 18.9212 5.54566 19.9985C6.08665 20.5423 6.71926 20.9865 7.41447 21.3107C9.78096 22.44 12.4013 22.465 14.7049 21.3817C15.7003 20.913 16.6776 20.1864 17.726 19.1331C18.7453 18.1087 19.4349 17.2543 21.3157 14.6779C22.3551 13.2558 23.1785 12.3114 23.5863 12.0746L23.7362 11.9886L23.7172 15.0776C23.6992 18.0688 23.6952 18.1827 23.5943 18.6364C22.9947 21.3127 21.0559 23.2694 18.4025 23.8751L17.9348 23.982L12.1635 23.992C7.43246 24 6.31716 23.99 5.97739 23.936L5.97833 23.9359Z" fill="#858D9D"/>
</g>
<defs>
<clipPath id="clip0_3078_5720">
<rect width="24" height="24" fill="white"/>
</clipPath>
</defs>
</svg>
